<?xml version="1.0" encoding="utf-8"?>
<!-- Generator: Adobe Illustrator 24.3.0, SVG Export Plug-In . SVG Version: 6.00 Build 0)  -->
<svg version="1.1" xmlns="http://www.w3.org/2000/svg" xmlns:xlink="http://www.w3.org/1999/xlink" x="0px" y="0px"
	 viewBox="0 0 563.42 215.29" style="enable-background:new 0 0 563.42 215.29;" xml:space="preserve">
<style type="text/css">
	.st0{display:none;}
	.st1{display:inline;fill:#3C3C3B;}
	.st2{fill:#FFFFFF;}
	.st3{fill:#009A93;}
</style>
<g id="Background" class="st0">
	<rect x="-139.23" y="-190" class="st1" width="841.89" height="595.28"/>
</g>
<g id="Design">
	<g>
		<g>
			<path class="st2" d="M75.02,215.29c-13.63,0-26.99-3.7-38.62-10.7C13.61,190.88,0,166.83,0,140.27
				c0-13.31,3.56-26.42,10.29-37.94l0,0c0.83-1.44,6.38-11.06,46.36-80.33c9.66-16.69,18.3-21.42,40.2-22l0.23,0h86.89l-51.66,89.46
				l6.98,12.1c7.04,11.66,10.76,25.05,10.76,38.71C150.05,181.63,116.39,215.29,75.02,215.29z"/>
			<path class="st2" d="M122.46,89.45L169.2,8.53H97.08C76.97,9.06,71.7,13.02,64.04,26.27c0,0-46.37,80.32-46.39,80.37
				c-5.76,9.85-9.12,21.4-9.12,33.63c0,24.21,12.93,45.39,32.27,57.02c9.99,6.01,21.72,9.48,34.23,9.48
				c36.73,0,66.5-29.77,66.5-66.5c0-12.58-3.5-24.34-9.57-34.38L122.46,89.45z"/>
			<g>
				<path class="st3" d="M111.92,140.27c0,20.37-16.52,36.89-36.89,36.89c-20.38,0-36.9-16.52-36.9-36.89
					c0-20.38,16.52-36.9,36.9-36.9C95.4,103.37,111.92,119.89,111.92,140.27"/>
				<path class="st3" d="M122.46,89.45L169.2,8.53H97.08C76.97,9.06,71.7,13.02,64.04,26.27c0,0-46.37,80.32-46.39,80.37
					c-5.76,9.85-9.12,21.4-9.12,33.63c0,24.21,12.93,45.39,32.27,57.02c9.99,6.01,21.72,9.48,34.23,9.48
					c36.73,0,66.5-29.77,66.5-66.5c0-12.58-3.5-24.34-9.57-34.38L122.46,89.45z M97.45,25.53h42.28l-27.09,46.91l-9.23-15.99
					L86.25,26.72C88.72,25.88,92.08,25.53,97.45,25.53 M75.02,189.82c-12.16,0-23.3-4.39-31.92-11.65
					c-10.79-9.09-17.64-22.7-17.64-37.91c0-9.16,2.48-17.75,6.81-25.11c0,0,42.58-73.74,42.74-74.03l16.62,28.74l0,0l0.01,0.02
					l26.1,45.24c0,0.01,0.01,0.03,0.01,0.04c4.33,7.36,6.82,15.94,6.82,25.1C124.58,167.63,102.39,189.82,75.02,189.82"/>
			</g>
		</g>
		<g>
			<path class="st2" d="M355.49,100.82v-0.11c0-10.41-7.63-16.52-19.47-16.52h-18.33c-1.76,0-3.31,1.42-3.31,3.06v43.81h12.98
				v-11.84c0-0.76,0.75-1.56,1.48-1.56h4.6l9.04,13.4h15.01l-10.8-15.72C352.11,112.65,355.49,107.76,355.49,100.82z M342.52,101.41
				c0,3.69-2.81,6.08-7.42,6.08h-7.75V97.15c0-1.11,0.91-2.03,2.02-2.03h5.66c4.7,0,7.5,2.13,7.5,6.15V101.41z"/>
			<path class="st2" d="M386.01,83.26c-14.45,0-25.28,10.91-25.28,24.38v0.1c0,13.5,10.69,24.28,25.16,24.28
				c14.46,0,25.32-10.95,25.32-24.38v-0.15C411.22,94.05,400.47,83.26,386.01,83.26 M397.94,107.74c0,6.76-4.72,12.53-11.93,12.53
				c-7.07,0-11.97-5.89-11.97-12.63v-0.15c0-6.76,4.77-12.52,11.86-12.52c7.16,0,12.05,5.91,12.05,12.67V107.74z"/>
			<path class="st2" d="M449.56,87.19v21.78l-19.27-24.8h-8.79c-1.85,0-3.33,1.52-3.33,3.35v43.52h12.86v-25.69l20.03,25.69h11.35
				V84.18h-9.53C451.12,84.18,449.56,85.51,449.56,87.19"/>
			<path class="st2" d="M266.74,87.4v8.19h14.05v35.46h13V97.07c0-0.8,0.67-1.48,1.63-1.48h12.43V84.18h-37.78
				C268.27,84.18,266.75,85.74,266.74,87.4"/>
			<path class="st2" d="M223.33,87.43v43.63h37.68v-11.07h-24.83v-5.64c0-0.88,0.78-1.78,1.62-1.78h20.3v-10.23h-21.91v-5.33
				c0-0.83,0.71-1.77,1.52-1.77h23.32V84.18h-34.35C224.87,84.18,223.32,85.66,223.33,87.43"/>
			<path class="st2" d="M545.98,101.86c-6.52-1.46-8.11-2.4-8.11-4.51v-0.16c0-1.68,1.52-3.01,4.67-3.01c2.88,0,5.96,0.77,9.02,2.23
				c0,0,0.67,0.33,0.97,0.49c0.89,0.4,1.91,0.73,3.19,0.46c0.9-0.19,1.56-1.01,2.37-1.99l4.06-5.75
				c-5.07-4.09-11.28-6.23-19.28-6.23c-11.23,0-18.14,6.3-18.14,15.01v0.13c0,9.64,7.72,12.44,17.68,14.74
				c6.35,1.45,7.88,2.53,7.88,4.48v0.11c0,2.04-1.86,3.21-5.33,3.21c-4.09,0-8.05-1.1-11.72-3.23c-1.06-0.53-2.36-1.24-4.03-0.87
				c-0.69,0.15-1.22,0.62-1.78,1.29l-4.9,5.86c5.75,5.11,13.67,7.74,21.96,7.74c11.38,0,18.93-5.69,18.93-15.25v-0.13
				C563.42,107.71,556.72,104.2,545.98,101.86"/>
			<path class="st2" d="M481.89,131.05l2.36-5.92c0.36-0.94,1.15-1.92,2.15-2.1h16.75l3.28,8.02h13.92l-19.82-46.87H489.9
				c-1.57,0.18-2.2,1.01-2.76,2.15l-18.92,44.72H481.89z M494.2,99.58l5.23,13.33h-10.54L494.2,99.58z"/>
			<path class="st2" d="M189.65,131.05c0-3.49-0.02-11.37,0-11.83c0.03-0.64,0.47-1.28,1.1-1.5c0.28-0.1,0.59-0.07,0.89-0.07
				c1.67,0,3.34,0,5,0c3.48,0,6.93-0.29,10.24-1.47c3.47-1.24,6.59-3.37,8.57-6.54c1.94-3.12,2.57-6.9,2.29-10.52
				c-0.21-2.71-1.02-5.37-2.55-7.63c-3.25-4.8-9.04-6.85-14.62-7.23c-0.75-0.05-1.52-0.09-2.25-0.08c-2.22,0.01-4.44,0-6.66,0
				c-3.07,0-6.14,0-9.21,0c-2.2,0-5.79-0.1-5.79,3.06c0,1.51,0,3.01,0,4.52v39.29H189.65z M204.82,101.41
				c0,3.69-2.81,6.08-7.42,6.08h-7.75V97.15c0-1.11,0.91-2.03,2.02-2.03h5.66c4.7,0,7.5,2.13,7.5,6.15V101.41z"/>
		</g>
	</g>
</g>
<g id="Layer_3">
</g>
</svg>
